<svg version="1.1" id="Layer_1" xmlns="http://www.w3.org/2000/svg" xmlns:xlink="http://www.w3.org/1999/xlink" x="0px" y="0px"
	 viewBox="0 0 223 229" enable-background="new 0 0 223 229" xml:space="preserve">
<path fill="#070707" opacity="1.000000" stroke="none" 
	d="
M127.000000,230.000000 
	C84.666672,230.000000 42.833340,230.000000 1.000006,230.000000 
	C1.000004,153.666672 1.000004,77.333351 1.000002,1.000016 
	C75.333321,1.000011 149.666641,1.000011 223.999969,1.000005 
	C223.999985,77.333321 223.999985,153.666641 224.000000,229.999969 
	C191.833328,230.000000 159.666672,230.000000 127.000000,230.000000 
M103.499741,217.466736 
	C129.496445,217.466766 155.493164,217.451675 181.489853,217.471756 
	C201.424698,217.487167 213.457596,205.497070 213.462875,185.498718 
	C213.475250,138.671097 213.489365,91.843437 213.420502,45.015911 
	C213.415405,41.555668 213.202026,37.976364 212.316666,34.657516 
	C208.552780,20.548487 197.865677,12.691558 181.177063,12.610518 
	C135.850327,12.390412 90.520897,12.365358 45.194443,12.612946 
	C25.395744,12.721092 13.188612,23.204447 12.929571,42.309093 
	C12.267740,91.120132 12.332973,139.952469 12.999389,188.764114 
	C13.246360,206.853592 25.876410,217.429504 44.006874,217.459427 
	C63.504444,217.491608 83.002106,217.466751 103.499741,217.466736 
z"/>
<path fill="#FFFFFF" opacity="1.000000" stroke="none" 
	d="
M102.999741,217.466751 
	C83.002106,217.466751 63.504444,217.491608 44.006874,217.459427 
	C25.876410,217.429504 13.246360,206.853592 12.999389,188.764114 
	C12.332973,139.952469 12.267740,91.120132 12.929571,42.309093 
	C13.188612,23.204447 25.395744,12.721092 45.194443,12.612946 
	C90.520897,12.365358 135.850327,12.390412 181.177063,12.610518 
	C197.865677,12.691558 208.552780,20.548487 212.316666,34.657516 
	C213.202026,37.976364 213.415405,41.555668 213.420502,45.015911 
	C213.489365,91.843437 213.475250,138.671097 213.462875,185.498718 
	C213.457596,205.497070 201.424698,217.487167 181.489853,217.471756 
	C155.493164,217.451675 129.496445,217.466766 102.999741,217.466751 
M98.364738,92.500107 
	C98.364738,114.256851 98.364738,136.013596 98.364738,158.236404 
	C109.050598,157.437836 118.702431,156.716537 128.315750,155.998108 
	C128.315750,126.426613 128.315750,97.515541 128.315750,68.456436 
	C118.259430,69.178719 108.703873,69.865036 98.365051,70.607605 
	C98.365051,77.582253 98.365051,84.541252 98.364738,92.500107 
M118.410927,38.920620 
	C114.633888,39.035793 110.750679,38.637852 107.105873,39.392063 
	C102.213951,40.404339 99.910278,44.201298 99.926300,49.385685 
	C99.941620,54.344353 102.297195,57.785419 107.034103,58.909348 
	C110.356331,59.697620 113.956886,59.994869 117.349136,59.660110 
	C123.861359,59.017483 127.130363,55.679626 127.632050,50.135433 
	C128.133102,44.598145 125.564529,41.204144 118.410927,38.920620 
M109.982780,187.962769 
	C113.125977,187.804581 116.360107,188.061996 119.392715,187.398407 
	C125.049629,186.160614 127.406235,182.692490 127.236763,176.931564 
	C127.082413,171.684662 124.338661,168.341980 118.916527,167.273499 
	C116.654671,166.827789 114.274361,166.815369 111.953705,166.866867 
	C104.660194,167.028702 100.560371,170.021439 99.858543,175.523758 
	C98.991844,182.318634 101.478012,185.633575 109.982780,187.962769 
z"/>
<path fill="#7436A3" opacity="1.000000" stroke="none" 
	d="
M98.364899,92.000183 
	C98.365051,84.541252 98.365051,77.582253 98.365051,70.607605 
	C108.703873,69.865036 118.259430,69.178719 128.315750,68.456436 
	C128.315750,97.515541 128.315750,126.426613 128.315750,155.998108 
	C118.702431,156.716537 109.050598,157.437836 98.364738,158.236404 
	C98.364738,136.013596 98.364738,114.256851 98.364899,92.000183 
z"/>
<path fill="#7435A2" opacity="1.000000" stroke="none" 
	d="
M118.811356,38.964958 
	C125.564529,41.204144 128.133102,44.598145 127.632050,50.135433 
	C127.130363,55.679626 123.861359,59.017483 117.349136,59.660110 
	C113.956886,59.994869 110.356331,59.697620 107.034103,58.909348 
	C102.297195,57.785419 99.941620,54.344353 99.926300,49.385685 
	C99.910278,44.201298 102.213951,40.404339 107.105873,39.392063 
	C110.750679,38.637852 114.633888,39.035793 118.811356,38.964958 
z"/>
<path fill="#7233A1" opacity="1.000000" stroke="none" 
	d="
M109.554474,187.921753 
	C101.478012,185.633575 98.991844,182.318634 99.858543,175.523758 
	C100.560371,170.021439 104.660194,167.028702 111.953705,166.866867 
	C114.274361,166.815369 116.654671,166.827789 118.916527,167.273499 
	C124.338661,168.341980 127.082413,171.684662 127.236763,176.931564 
	C127.406235,182.692490 125.049629,186.160614 119.392715,187.398407 
	C116.360107,188.061996 113.125977,187.804581 109.554474,187.921753 
z"/>
</svg>