<?xml version="1.0" encoding="utf-8"?>
<!-- Generator: Adobe Illustrator 27.0.1, SVG Export Plug-In . SVG Version: 6.00 Build 0)  -->
<svg version="1.1" id="Layer_1" xmlns="http://www.w3.org/2000/svg" xmlns:xlink="http://www.w3.org/1999/xlink" x="0px" y="0px"
	 viewBox="0 0 612 132.58" style="enable-background:new 0 0 612 132.58;" xml:space="preserve">
<style type="text/css">
	.st0{fill:#FFFFFF;}
</style>
<g>
	<path class="st0" d="M106.37,69.11c-0.23,4.95-1.56,9.32-4,13.11c-2.44,3.79-5.87,6.73-10.28,8.81c-4.41,2.08-9.45,3.12-15.11,3.12
		c-9.34,0-16.7-3.04-22.07-9.13c-5.37-6.09-8.06-14.68-8.06-25.78v-3.52c0-6.97,1.21-13.06,3.64-18.29
		c2.42-5.22,5.92-9.26,10.47-12.11c4.56-2.85,9.83-4.27,15.82-4.27c8.63,0,15.56,2.27,20.8,6.81c5.24,4.54,8.22,10.8,8.94,18.77
		H89.42c-0.13-4.33-1.22-7.44-3.27-9.33c-2.05-1.89-5.18-2.83-9.38-2.83c-4.26,0-7.39,1.6-9.38,4.79
		c-1.99,3.19-3.03,8.28-3.12,15.28v5.03c0,7.58,0.95,13,2.86,16.26c1.9,3.26,5.18,4.88,9.84,4.88c3.94,0,6.95-0.93,9.03-2.78
		c2.08-1.86,3.19-4.8,3.32-8.84H106.37z"/>
	<path class="st0" d="M131.07,93.18h-16.5v-75h16.5V93.18z"/>
	<path class="st0" d="M172.67,87.47c-3.48,4.46-8.19,6.69-14.11,6.69c-5.79,0-10.18-1.68-13.16-5.05s-4.47-8.21-4.47-14.53V40.35
		h16.46v34.33c0,4.52,2.2,6.79,6.59,6.79c3.78,0,6.46-1.35,8.06-4.05V40.35h16.55v52.83h-15.43L172.67,87.47z"/>
	<path class="st0" d="M225.26,78.34c0-1.4-0.73-2.52-2.2-3.37c-1.46-0.85-4.25-1.73-8.35-2.64c-4.1-0.91-7.49-2.11-10.16-3.59
		c-2.67-1.48-4.7-3.28-6.1-5.4c-1.4-2.12-2.1-4.54-2.1-7.28c0-4.85,2-8.85,6.01-11.99c4-3.14,9.24-4.71,15.72-4.71
		c6.97,0,12.56,1.58,16.8,4.74c4.23,3.16,6.35,7.31,6.35,12.45h-16.5c0-4.23-2.23-6.35-6.69-6.35c-1.73,0-3.17,0.48-4.35,1.44
		c-1.17,0.96-1.76,2.16-1.76,3.59c0,1.46,0.72,2.65,2.15,3.56c1.43,0.91,3.72,1.66,6.86,2.25c3.14,0.59,5.9,1.29,8.28,2.1
		c7.94,2.73,11.91,7.63,11.91,14.7c0,4.82-2.14,8.74-6.42,11.77c-4.28,3.03-9.82,4.54-16.63,4.54c-4.52,0-8.56-0.81-12.11-2.44
		c-3.55-1.63-6.32-3.84-8.3-6.64c-1.99-2.8-2.98-5.75-2.98-8.84h15.38c0.06,2.44,0.88,4.22,2.44,5.35s3.56,1.68,6.01,1.68
		c2.25,0,3.93-0.46,5.05-1.37C224.7,80.99,225.26,79.8,225.26,78.34z"/>
	<path class="st0" d="M267.99,27.21v13.13h8.69v11.43h-8.69v24.17c0,1.99,0.36,3.37,1.07,4.15c0.72,0.78,2.13,1.17,4.25,1.17
		c1.63,0,2.99-0.1,4.1-0.29v11.77c-2.96,0.94-6.05,1.42-9.28,1.42c-5.66,0-9.85-1.33-12.55-4c-2.7-2.67-4.05-6.72-4.05-12.16V51.78
		h-6.74V40.35h6.74V27.21H267.99z"/>
	<path class="st0" d="M308.71,94.16c-8.11,0-14.67-2.42-19.68-7.25c-5.01-4.83-7.52-11.12-7.52-18.87v-1.37c0-5.4,1-10.17,3-14.31
		c2-4.13,4.92-7.33,8.76-9.59c3.84-2.26,8.4-3.39,13.67-3.39c7.42,0,13.28,2.3,17.58,6.91c4.3,4.61,6.45,11.03,6.45,19.26v6.4
		h-32.71c0.59,2.96,1.87,5.29,3.86,6.98c1.99,1.69,4.56,2.54,7.71,2.54c5.21,0,9.28-1.82,12.21-5.47l7.52,8.89
		c-2.05,2.83-4.96,5.09-8.72,6.76S313.04,94.16,308.71,94.16z M306.85,52.07c-4.82,0-7.68,3.19-8.59,9.57h16.6v-1.27
		c0.06-2.64-0.6-4.68-2-6.13C311.46,52.79,309.46,52.07,306.85,52.07z"/>
	<path class="st0" d="M369.55,55.24l-5.42-0.39c-5.18,0-8.5,1.63-9.96,4.88v33.45h-16.46V40.35h15.43l0.54,6.79
		c2.77-5.18,6.62-7.76,11.57-7.76c1.76,0,3.29,0.2,4.59,0.59L369.55,55.24z"/>
	<path class="st0" d="M393.38,80h29.83v13.18h-46.97V22.09h17.14V80z"/>
	<path class="st0" d="M429.56,26.73c0-2.34,0.85-4.26,2.54-5.76c1.69-1.5,3.89-2.25,6.59-2.25c2.7,0,4.9,0.75,6.59,2.25
		c1.69,1.5,2.54,3.42,2.54,5.76s-0.85,4.26-2.54,5.76c-1.69,1.5-3.89,2.25-6.59,2.25c-2.7,0-4.9-0.75-6.59-2.25
		C430.41,30.99,429.56,29.07,429.56,26.73z M447.04,93.18h-16.5V40.35h16.5V93.18z"/>
	<path class="st0" d="M472.28,40.35l0.54,6.2c3.65-4.79,8.67-7.18,15.09-7.18c5.5,0,9.61,1.64,12.33,4.93
		c2.72,3.29,4.13,8.24,4.22,14.84v34.03h-16.5V59.83c0-2.67-0.54-4.63-1.61-5.88c-1.07-1.25-3.03-1.88-5.86-1.88
		c-3.22,0-5.62,1.27-7.18,3.81v37.3h-16.46V40.35H472.28z"/>
	<path class="st0" d="M534.78,73.5l-4.64,4.64v15.04h-16.46V18.13h16.46v39.84l1.66-2.2l12.4-15.43h19.73l-18.51,21.73l19.73,31.1
		h-18.85L534.78,73.5z"/>
	<path class="st0" d="M429.56,106.44c0-2.34,0.85-4.26,2.54-5.76c1.69-1.5,3.89-2.25,6.59-2.25c2.7,0,4.9,0.75,6.59,2.25
		c1.69,1.5,2.54,3.42,2.54,5.76s-0.85,4.26-2.54,5.76c-1.69,1.5-3.89,2.25-6.59,2.25c-2.7,0-4.9-0.75-6.59-2.25
		C430.41,110.71,429.56,108.79,429.56,106.44z"/>
</g>
</svg>
